<mxfile host="65bd71144e">
    <diagram id="5jzS-l7_XITbSMrRvt60" name="Page-1">
        <mxGraphModel dx="959" dy="1651" grid="1" gridSize="10" guides="1" tooltips="1" connect="1" arrows="1" fold="1" page="1" pageScale="1" pageWidth="850" pageHeight="1100" math="0" shadow="0">
            <root>
                <mxCell id="0"/>
                <mxCell id="1" parent="0"/>
                <mxCell id="24" value="" style="edgeStyle=none;html=1;" edge="1" parent="1" source="22" target="23">
                    <mxGeometry relative="1" as="geometry"/>
                </mxCell>
                <mxCell id="22" value="Hypertension routes&lt;br&gt;" style="rounded=1;whiteSpace=wrap;html=1;" vertex="1" parent="1">
                    <mxGeometry x="60" y="150" width="120" height="60" as="geometry"/>
                </mxCell>
                <mxCell id="35" style="edgeStyle=none;html=1;entryX=0.5;entryY=1;entryDx=0;entryDy=0;" edge="1" parent="1" source="23" target="34">
                    <mxGeometry relative="1" as="geometry"/>
                </mxCell>
                <mxCell id="23" value="Hypertension Composer" style="whiteSpace=wrap;html=1;fillColor=rgb(24, 20, 29);rounded=1;" vertex="1" parent="1">
                    <mxGeometry x="260" y="150" width="120" height="60" as="geometry"/>
                </mxCell>
                <mxCell id="38" style="edgeStyle=none;curved=1;html=1;entryX=0;entryY=0.5;entryDx=0;entryDy=0;entryPerimeter=0;" edge="1" parent="1" source="25" target="39">
                    <mxGeometry relative="1" as="geometry">
                        <mxPoint x="550" y="-120" as="targetPoint"/>
                    </mxGeometry>
                </mxCell>
                <mxCell id="40" style="edgeStyle=none;curved=1;html=1;entryX=0;entryY=0.5;entryDx=0;entryDy=0;" edge="1" parent="1" source="25" target="32">
                    <mxGeometry relative="1" as="geometry"/>
                </mxCell>
                <mxCell id="25" value="Hypertension Concrete Repository" style="whiteSpace=wrap;html=1;fillColor=rgb(24, 20, 29);rounded=1;" vertex="1" parent="1">
                    <mxGeometry x="350" y="10" width="120" height="60" as="geometry"/>
                </mxCell>
                <mxCell id="36" style="edgeStyle=none;html=1;entryX=0.5;entryY=0;entryDx=0;entryDy=0;curved=1;" edge="1" parent="1" source="32" target="34">
                    <mxGeometry relative="1" as="geometry">
                        <Array as="points">
                            <mxPoint x="400" y="-90"/>
                        </Array>
                    </mxGeometry>
                </mxCell>
                <mxCell id="41" style="edgeStyle=none;curved=1;html=1;" edge="1" parent="1" source="32" target="22">
                    <mxGeometry relative="1" as="geometry">
                        <Array as="points">
                            <mxPoint x="550" y="340"/>
                        </Array>
                    </mxGeometry>
                </mxCell>
                <mxCell id="32" value="Hypertension Concrete UseCase" style="whiteSpace=wrap;html=1;fillColor=rgb(24, 20, 29);rounded=1;" vertex="1" parent="1">
                    <mxGeometry x="500" y="10" width="120" height="60" as="geometry"/>
                </mxCell>
                <mxCell id="34" value="Hypertension Concrete Controller" style="whiteSpace=wrap;html=1;fillColor=rgb(24, 20, 29);rounded=1;" vertex="1" parent="1">
                    <mxGeometry x="190" y="20" width="120" height="60" as="geometry"/>
                </mxCell>
                <mxCell id="39" value="Query data from DB" style="shape=cylinder3;whiteSpace=wrap;html=1;boundedLbl=1;backgroundOutline=1;size=15;" vertex="1" parent="1">
                    <mxGeometry x="310" y="-220" width="60" height="80" as="geometry"/>
                </mxCell>
            </root>
        </mxGraphModel>
    </diagram>
</mxfile>